%TF.GenerationSoftware,KiCad,Pcbnew,7.0.9*%
%TF.CreationDate,2024-08-24T05:30:20-10:00*%
%TF.ProjectId,scartaudioextract,73636172-7461-4756-9469-6f6578747261,rev?*%
%TF.SameCoordinates,Original*%
%TF.FileFunction,Soldermask,Top*%
%TF.FilePolarity,Negative*%
%FSLAX46Y46*%
G04 Gerber Fmt 4.6, Leading zero omitted, Abs format (unit mm)*
G04 Created by KiCad (PCBNEW 7.0.9) date 2024-08-24 05:30:20*
%MOMM*%
%LPD*%
G01*
G04 APERTURE LIST*
G04 Aperture macros list*
%AMRoundRect*
0 Rectangle with rounded corners*
0 $1 Rounding radius*
0 $2 $3 $4 $5 $6 $7 $8 $9 X,Y pos of 4 corners*
0 Add a 4 corners polygon primitive as box body*
4,1,4,$2,$3,$4,$5,$6,$7,$8,$9,$2,$3,0*
0 Add four circle primitives for the rounded corners*
1,1,$1+$1,$2,$3*
1,1,$1+$1,$4,$5*
1,1,$1+$1,$6,$7*
1,1,$1+$1,$8,$9*
0 Add four rect primitives between the rounded corners*
20,1,$1+$1,$2,$3,$4,$5,0*
20,1,$1+$1,$4,$5,$6,$7,0*
20,1,$1+$1,$6,$7,$8,$9,0*
20,1,$1+$1,$8,$9,$2,$3,0*%
G04 Aperture macros list end*
%ADD10RoundRect,0.250000X0.450000X-0.350000X0.450000X0.350000X-0.450000X0.350000X-0.450000X-0.350000X0*%
%ADD11O,1.200000X2.200000*%
%ADD12O,2.200000X1.200000*%
%ADD13C,1.200000*%
%ADD14C,2.300000*%
G04 APERTURE END LIST*
D10*
%TO.C,R3*%
X154500000Y-65500000D03*
X154500000Y-67500000D03*
%TD*%
%TO.C,R1*%
X154500000Y-49000000D03*
X154500000Y-51000000D03*
%TD*%
D11*
%TO.C,J3*%
X154040000Y-76900000D03*
D12*
X149040000Y-81900000D03*
D11*
X144040000Y-76900000D03*
D13*
X154040000Y-84400000D03*
X154040000Y-81900000D03*
X149040000Y-76900000D03*
X144040000Y-84400000D03*
X144040000Y-81900000D03*
%TD*%
D14*
%TO.C,J1*%
X140080000Y-39450000D03*
X135000000Y-41355000D03*
X140080000Y-43260000D03*
X135000000Y-45165000D03*
X140080000Y-47070000D03*
X135000000Y-48975000D03*
X140080000Y-50880000D03*
X135000000Y-52785000D03*
X140080000Y-54690000D03*
X135000000Y-56595000D03*
X140080000Y-58500000D03*
X135000000Y-60405000D03*
X140080000Y-62310000D03*
X135000000Y-64215000D03*
X140080000Y-66120000D03*
X135000000Y-68025000D03*
X140080000Y-69930000D03*
X135000000Y-71835000D03*
X140080000Y-73740000D03*
X135000000Y-75645000D03*
X140080000Y-77550000D03*
%TD*%
%TO.C,J2*%
X158000000Y-77550000D03*
X163080000Y-75645000D03*
X158000000Y-73740000D03*
X163080000Y-71835000D03*
X158000000Y-69930000D03*
X163080000Y-68025000D03*
X158000000Y-66120000D03*
X163080000Y-64215000D03*
X158000000Y-62310000D03*
X163080000Y-60405000D03*
X158000000Y-58500000D03*
X163080000Y-56595000D03*
X158000000Y-54690000D03*
X163080000Y-52785000D03*
X158000000Y-50880000D03*
X163080000Y-48975000D03*
X158000000Y-47070000D03*
X163080000Y-45165000D03*
X158000000Y-43260000D03*
X163080000Y-41355000D03*
X158000000Y-39450000D03*
%TD*%
M02*
