%TF.GenerationSoftware,KiCad,Pcbnew,7.0.9*%
%TF.CreationDate,2024-08-30T02:56:13-10:00*%
%TF.ProjectId,scartaudioextract,73636172-7461-4756-9469-6f6578747261,rev?*%
%TF.SameCoordinates,Original*%
%TF.FileFunction,Profile,NP*%
%FSLAX46Y46*%
G04 Gerber Fmt 4.6, Leading zero omitted, Abs format (unit mm)*
G04 Created by KiCad (PCBNEW 7.0.9) date 2024-08-30 02:56:13*
%MOMM*%
%LPD*%
G01*
G04 APERTURE LIST*
%TA.AperFunction,Profile*%
%ADD10C,0.100000*%
%TD*%
G04 APERTURE END LIST*
D10*
X126300000Y-83150000D02*
G75*
G03*
X126550000Y-83400000I250000J0D01*
G01*
X167580000Y-33600000D02*
X171525000Y-33600000D01*
X155540000Y-86400000D02*
X162830000Y-86400000D01*
X171775000Y-33850000D02*
G75*
G03*
X171525000Y-33600000I-250000J0D01*
G01*
X171525000Y-83400000D02*
G75*
G03*
X171775000Y-83150000I0J250000D01*
G01*
X171775000Y-33850000D02*
X171775000Y-83150000D01*
X130500000Y-33600000D02*
X126550000Y-33600000D01*
X126300000Y-33850000D02*
X126300000Y-83150000D01*
X167580000Y-83400000D02*
X171525000Y-83400000D01*
X126550000Y-33600000D02*
G75*
G03*
X126300000Y-33850000I0J-250000D01*
G01*
X130500000Y-83400000D02*
X126550000Y-83400000D01*
X162830000Y-30600000D02*
X135250000Y-30600000D01*
X142540000Y-86400000D02*
X135250000Y-86400000D01*
%TO.C,J3*%
X146440001Y-86400001D02*
X142540000Y-86400000D01*
X146840000Y-85400000D02*
X146840001Y-86000001D01*
X150840000Y-85000000D02*
X147240000Y-85000000D01*
X151240000Y-85400000D02*
X151239999Y-86000001D01*
X151639999Y-86400001D02*
X155540000Y-86400000D01*
X147240000Y-85000000D02*
G75*
G03*
X146840000Y-85400000I2J-400002D01*
G01*
X146440001Y-86400001D02*
G75*
G03*
X146840001Y-86000001I-4J400004D01*
G01*
X151240000Y-85400000D02*
G75*
G03*
X150840000Y-85000000I-400000J0D01*
G01*
X151239999Y-86000001D02*
G75*
G03*
X151639999Y-86400001I400001J1D01*
G01*
%TO.C,J1*%
X135000000Y-83650000D02*
X135000000Y-86150000D01*
X130500000Y-83400000D02*
X134750000Y-83400000D01*
X130500000Y-33600000D02*
X134750000Y-33600000D01*
X135000000Y-33350000D02*
X135000000Y-30850000D01*
X135000000Y-86150000D02*
G75*
G03*
X135250000Y-86400000I249999J-1D01*
G01*
X135000000Y-83650000D02*
G75*
G03*
X134750000Y-83400000I-249999J1D01*
G01*
X134750000Y-33600000D02*
G75*
G03*
X135000000Y-33350000I0J250000D01*
G01*
X135250000Y-30600000D02*
G75*
G03*
X135000000Y-30850000I0J-250000D01*
G01*
%TO.C,J2*%
X163080000Y-33350000D02*
X163080000Y-30850000D01*
X167580000Y-33600000D02*
X163330000Y-33600000D01*
X167580000Y-83400000D02*
X163330000Y-83400000D01*
X163080000Y-83650000D02*
X163080000Y-86150000D01*
X163080000Y-30850000D02*
G75*
G03*
X162830000Y-30600000I-249999J1D01*
G01*
X163080000Y-33350000D02*
G75*
G03*
X163330000Y-33600000I249999J-1D01*
G01*
X163330000Y-83400000D02*
G75*
G03*
X163080000Y-83650000I0J-250000D01*
G01*
X162830000Y-86400000D02*
G75*
G03*
X163080000Y-86150000I0J250000D01*
G01*
%TD*%
M02*
