M48
; DRILL file {KiCad 7.0.9} date Sat Aug 24 05:30:22 2024
; FORMAT={-:-/ absolute / inch / decimal}
; #@! TF.CreationDate,2024-08-24T05:30:22-10:00
; #@! TF.GenerationSoftware,Kicad,Pcbnew,7.0.9
; #@! TF.FileFunction,Plated,1,2,PTH
FMAT,2
INCH
; #@! TA.AperFunction,Plated,PTH,ViaDrill
T1C0.0157
; #@! TA.AperFunction,Plated,PTH,ComponentDrill
T2C0.0157
; #@! TA.AperFunction,Plated,PTH,ComponentDrill
T3C0.0512
%
G90
G05
T1
X5.0197Y-1.3681
X5.0197Y-1.8356
X5.0197Y-2.3031
X5.0197Y-2.7707
X5.0197Y-3.2382
X5.4437Y-1.3681
X5.4437Y-3.2382
X5.8677Y-1.3681
X5.8677Y-3.2874
X6.2902Y-1.3681
X6.2902Y-3.2382
X6.7126Y-1.3681
X6.7126Y-1.8356
X6.7126Y-2.3031
X6.7126Y-2.7707
X6.7126Y-3.2382
T3
X5.315Y-1.6281
X5.315Y-1.7781
X5.315Y-1.9281
X5.315Y-2.0781
X5.315Y-2.2281
X5.315Y-2.3781
X5.315Y-2.5281
X5.315Y-2.6781
X5.315Y-2.8281
X5.315Y-2.9781
X5.515Y-1.5531
X5.515Y-1.7031
X5.515Y-1.8531
X5.515Y-2.0031
X5.515Y-2.1531
X5.515Y-2.3031
X5.515Y-2.4531
X5.515Y-2.6031
X5.515Y-2.7531
X5.515Y-2.9031
X5.515Y-3.0531
X6.2205Y-1.5531
X6.2205Y-1.7031
X6.2205Y-1.8531
X6.2205Y-2.0031
X6.2205Y-2.1531
X6.2205Y-2.3031
X6.2205Y-2.4531
X6.2205Y-2.6031
X6.2205Y-2.7531
X6.2205Y-2.9031
X6.2205Y-3.0531
X6.4205Y-1.6281
X6.4205Y-1.7781
X6.4205Y-1.9281
X6.4205Y-2.0781
X6.4205Y-2.2281
X6.4205Y-2.3781
X6.4205Y-2.5281
X6.4205Y-2.6781
X6.4205Y-2.8281
X6.4205Y-2.9781
T2
G00X5.6709Y-3.0079
M15
G01X5.6709Y-3.0472
M16
G05
G00X5.848Y-3.2244
M15
G01X5.8874Y-3.2244
M16
G05
G00X6.0646Y-3.0472
M15
G01X6.0646Y-3.0079
M16
G05
T0
M30
